# xmcd
#
# Track frame offsets:
#	150
#	22952
#	48047
#	71969
#	104935
#
# Disc length: 2020 seconds
#
# Revision: 1
# Processed by: cddbd v1.5.1PL2 Copyright (c) Steve Scherf et al.
# Submitted via: EasyCDDAExtractor 9.0.0.1
#
DISCID=4207e205
DTITLE=Whitesnake - Empire Theatre Liverpool 04-11-79 Disc 1
DYEAR=1979
DGENRE=Hard Rock
TTITLE0=Come On
TTITLE1=You 'N' Me
TTITLE2=Walking In The Shadow Of The Blues
TTITLE3=Ain't No Love In the Heart Of The City
TTITLE4=Steal Away Incl Micky Moody Guitar Solo
EXTD=
EXTT0=
EXTT1=
EXTT2=
EXTT3=
EXTT4=
PLAYORDER=
